<mxfile host="app.diagrams.net" agent="Mozilla/5.0 (Windows NT 10.0; Win64; x64) AppleWebKit/537.36 (KHTML, like Gecko) Chrome/130.0.0.0 Safari/537.36" version="24.8.3">
  <diagram id="C5RBs43oDa-KdzZeNtuy" name="Page-1">
    <mxGraphModel dx="1674" dy="738" grid="1" gridSize="10" guides="1" tooltips="1" connect="1" arrows="1" fold="1" page="1" pageScale="1" pageWidth="827" pageHeight="1169" math="0" shadow="0">
      <root>
        <mxCell id="WIyWlLk6GJQsqaUBKTNV-0" />
        <mxCell id="WIyWlLk6GJQsqaUBKTNV-1" parent="WIyWlLk6GJQsqaUBKTNV-0" />
        <mxCell id="WIyWlLk6GJQsqaUBKTNV-3" value="Person" style="rounded=1;whiteSpace=wrap;html=1;fontSize=12;glass=0;strokeWidth=1;shadow=0;" parent="WIyWlLk6GJQsqaUBKTNV-1" vertex="1">
          <mxGeometry x="220" y="160" width="120" height="40" as="geometry" />
        </mxCell>
        <mxCell id="WIyWlLk6GJQsqaUBKTNV-6" value="has" style="rhombus;whiteSpace=wrap;html=1;shadow=0;fontFamily=Helvetica;fontSize=12;align=center;strokeWidth=1;spacing=6;spacingTop=-4;" parent="WIyWlLk6GJQsqaUBKTNV-1" vertex="1">
          <mxGeometry x="420" y="140" width="100" height="80" as="geometry" />
        </mxCell>
        <mxCell id="WIyWlLk6GJQsqaUBKTNV-7" value="Education" style="rounded=1;whiteSpace=wrap;html=1;fontSize=12;glass=0;strokeWidth=1;shadow=0;" parent="WIyWlLk6GJQsqaUBKTNV-1" vertex="1">
          <mxGeometry x="574" y="160" width="120" height="40" as="geometry" />
        </mxCell>
        <mxCell id="WIyWlLk6GJQsqaUBKTNV-11" value="Work history" style="rounded=1;whiteSpace=wrap;html=1;fontSize=12;glass=0;strokeWidth=1;shadow=0;" parent="WIyWlLk6GJQsqaUBKTNV-1" vertex="1">
          <mxGeometry x="410" y="260" width="120" height="40" as="geometry" />
        </mxCell>
        <mxCell id="0S_B6VVMCFD0EOugPlmB-0" value="English ability" style="rounded=1;whiteSpace=wrap;html=1;fontSize=12;glass=0;strokeWidth=1;shadow=0;" parent="WIyWlLk6GJQsqaUBKTNV-1" vertex="1">
          <mxGeometry x="410" y="40" width="120" height="40" as="geometry" />
        </mxCell>
        <mxCell id="0S_B6VVMCFD0EOugPlmB-2" value="" style="endArrow=none;html=1;rounded=0;exitX=1;exitY=0.5;exitDx=0;exitDy=0;entryX=0;entryY=0.5;entryDx=0;entryDy=0;" parent="WIyWlLk6GJQsqaUBKTNV-1" source="WIyWlLk6GJQsqaUBKTNV-3" target="WIyWlLk6GJQsqaUBKTNV-6" edge="1">
          <mxGeometry width="50" height="50" relative="1" as="geometry">
            <mxPoint x="450" y="200" as="sourcePoint" />
            <mxPoint x="500" y="150" as="targetPoint" />
          </mxGeometry>
        </mxCell>
        <mxCell id="0S_B6VVMCFD0EOugPlmB-3" value="" style="endArrow=none;html=1;rounded=0;exitX=0.5;exitY=1;exitDx=0;exitDy=0;entryX=0.5;entryY=0;entryDx=0;entryDy=0;" parent="WIyWlLk6GJQsqaUBKTNV-1" source="0S_B6VVMCFD0EOugPlmB-0" target="WIyWlLk6GJQsqaUBKTNV-6" edge="1">
          <mxGeometry width="50" height="50" relative="1" as="geometry">
            <mxPoint x="390" y="110" as="sourcePoint" />
            <mxPoint x="470" y="110" as="targetPoint" />
          </mxGeometry>
        </mxCell>
        <mxCell id="0S_B6VVMCFD0EOugPlmB-4" value="" style="endArrow=none;html=1;rounded=0;exitX=1;exitY=0.5;exitDx=0;exitDy=0;entryX=0;entryY=0.5;entryDx=0;entryDy=0;" parent="WIyWlLk6GJQsqaUBKTNV-1" source="WIyWlLk6GJQsqaUBKTNV-6" target="WIyWlLk6GJQsqaUBKTNV-7" edge="1">
          <mxGeometry width="50" height="50" relative="1" as="geometry">
            <mxPoint x="360" y="200" as="sourcePoint" />
            <mxPoint x="570" y="180" as="targetPoint" />
          </mxGeometry>
        </mxCell>
        <mxCell id="0S_B6VVMCFD0EOugPlmB-5" value="" style="endArrow=none;html=1;rounded=0;exitX=0.5;exitY=1;exitDx=0;exitDy=0;entryX=0.5;entryY=0;entryDx=0;entryDy=0;" parent="WIyWlLk6GJQsqaUBKTNV-1" source="WIyWlLk6GJQsqaUBKTNV-6" target="WIyWlLk6GJQsqaUBKTNV-11" edge="1">
          <mxGeometry width="50" height="50" relative="1" as="geometry">
            <mxPoint x="370" y="210" as="sourcePoint" />
            <mxPoint x="450" y="210" as="targetPoint" />
          </mxGeometry>
        </mxCell>
        <mxCell id="0S_B6VVMCFD0EOugPlmB-6" value="id" style="ellipse;whiteSpace=wrap;html=1;" parent="WIyWlLk6GJQsqaUBKTNV-1" vertex="1">
          <mxGeometry x="245" y="90" width="70" height="30" as="geometry" />
        </mxCell>
        <mxCell id="0S_B6VVMCFD0EOugPlmB-7" value="age" style="ellipse;whiteSpace=wrap;html=1;" parent="WIyWlLk6GJQsqaUBKTNV-1" vertex="1">
          <mxGeometry x="170" y="110" width="60" height="30" as="geometry" />
        </mxCell>
        <mxCell id="0S_B6VVMCFD0EOugPlmB-8" value="poverty income ratio" style="ellipse;whiteSpace=wrap;html=1;" parent="WIyWlLk6GJQsqaUBKTNV-1" vertex="1">
          <mxGeometry x="60" y="150" width="140" height="40" as="geometry" />
        </mxCell>
        <mxCell id="0S_B6VVMCFD0EOugPlmB-9" value="salary" style="ellipse;whiteSpace=wrap;html=1;" parent="WIyWlLk6GJQsqaUBKTNV-1" vertex="1">
          <mxGeometry x="140" y="210" width="60" height="30" as="geometry" />
        </mxCell>
        <mxCell id="0S_B6VVMCFD0EOugPlmB-10" value="total earnings" style="ellipse;whiteSpace=wrap;html=1;" parent="WIyWlLk6GJQsqaUBKTNV-1" vertex="1">
          <mxGeometry x="235" y="220" width="90" height="30" as="geometry" />
        </mxCell>
        <mxCell id="0S_B6VVMCFD0EOugPlmB-11" value="education level" style="ellipse;whiteSpace=wrap;html=1;" parent="WIyWlLk6GJQsqaUBKTNV-1" vertex="1">
          <mxGeometry x="594" y="230" width="100" height="40" as="geometry" />
        </mxCell>
        <mxCell id="0S_B6VVMCFD0EOugPlmB-12" value="field of degree 1" style="ellipse;whiteSpace=wrap;html=1;" parent="WIyWlLk6GJQsqaUBKTNV-1" vertex="1">
          <mxGeometry x="720" y="160" width="100" height="40" as="geometry" />
        </mxCell>
        <mxCell id="0S_B6VVMCFD0EOugPlmB-13" value="field of degree 2" style="ellipse;whiteSpace=wrap;html=1;" parent="WIyWlLk6GJQsqaUBKTNV-1" vertex="1">
          <mxGeometry x="594" y="90" width="100" height="40" as="geometry" />
        </mxCell>
        <mxCell id="0S_B6VVMCFD0EOugPlmB-14" value="class of worker" style="ellipse;whiteSpace=wrap;html=1;" parent="WIyWlLk6GJQsqaUBKTNV-1" vertex="1">
          <mxGeometry x="474" y="330" width="100" height="40" as="geometry" />
        </mxCell>
        <mxCell id="0S_B6VVMCFD0EOugPlmB-15" value="last worked" style="ellipse;whiteSpace=wrap;html=1;" parent="WIyWlLk6GJQsqaUBKTNV-1" vertex="1">
          <mxGeometry x="290" y="290" width="100" height="40" as="geometry" />
        </mxCell>
        <mxCell id="0S_B6VVMCFD0EOugPlmB-17" value="" style="endArrow=none;html=1;rounded=0;exitX=0.5;exitY=1;exitDx=0;exitDy=0;" parent="WIyWlLk6GJQsqaUBKTNV-1" source="0S_B6VVMCFD0EOugPlmB-6" target="WIyWlLk6GJQsqaUBKTNV-3" edge="1">
          <mxGeometry width="50" height="50" relative="1" as="geometry">
            <mxPoint x="350" y="190" as="sourcePoint" />
            <mxPoint x="430" y="190" as="targetPoint" />
          </mxGeometry>
        </mxCell>
        <mxCell id="0S_B6VVMCFD0EOugPlmB-18" value="" style="endArrow=none;html=1;rounded=0;exitX=1;exitY=1;exitDx=0;exitDy=0;" parent="WIyWlLk6GJQsqaUBKTNV-1" source="0S_B6VVMCFD0EOugPlmB-7" target="WIyWlLk6GJQsqaUBKTNV-3" edge="1">
          <mxGeometry width="50" height="50" relative="1" as="geometry">
            <mxPoint x="360" y="200" as="sourcePoint" />
            <mxPoint x="440" y="200" as="targetPoint" />
          </mxGeometry>
        </mxCell>
        <mxCell id="0S_B6VVMCFD0EOugPlmB-19" value="" style="endArrow=none;html=1;rounded=0;" parent="WIyWlLk6GJQsqaUBKTNV-1" source="0S_B6VVMCFD0EOugPlmB-8" edge="1">
          <mxGeometry width="50" height="50" relative="1" as="geometry">
            <mxPoint x="370" y="210" as="sourcePoint" />
            <mxPoint x="220" y="184" as="targetPoint" />
          </mxGeometry>
        </mxCell>
        <mxCell id="0S_B6VVMCFD0EOugPlmB-20" value="" style="endArrow=none;html=1;rounded=0;exitX=0.99;exitY=0.31;exitDx=0;exitDy=0;entryX=0.25;entryY=1;entryDx=0;entryDy=0;exitPerimeter=0;" parent="WIyWlLk6GJQsqaUBKTNV-1" source="0S_B6VVMCFD0EOugPlmB-9" target="WIyWlLk6GJQsqaUBKTNV-3" edge="1">
          <mxGeometry width="50" height="50" relative="1" as="geometry">
            <mxPoint x="380" y="220" as="sourcePoint" />
            <mxPoint x="460" y="220" as="targetPoint" />
          </mxGeometry>
        </mxCell>
        <mxCell id="0S_B6VVMCFD0EOugPlmB-21" value="" style="endArrow=none;html=1;rounded=0;exitX=0.5;exitY=1;exitDx=0;exitDy=0;entryX=0.5;entryY=0;entryDx=0;entryDy=0;" parent="WIyWlLk6GJQsqaUBKTNV-1" source="WIyWlLk6GJQsqaUBKTNV-3" target="0S_B6VVMCFD0EOugPlmB-10" edge="1">
          <mxGeometry width="50" height="50" relative="1" as="geometry">
            <mxPoint x="390" y="230" as="sourcePoint" />
            <mxPoint x="470" y="230" as="targetPoint" />
          </mxGeometry>
        </mxCell>
        <mxCell id="0S_B6VVMCFD0EOugPlmB-22" value="" style="endArrow=none;html=1;rounded=0;" parent="WIyWlLk6GJQsqaUBKTNV-1" source="0S_B6VVMCFD0EOugPlmB-15" target="WIyWlLk6GJQsqaUBKTNV-11" edge="1">
          <mxGeometry width="50" height="50" relative="1" as="geometry">
            <mxPoint x="400" y="240" as="sourcePoint" />
            <mxPoint x="480" y="240" as="targetPoint" />
          </mxGeometry>
        </mxCell>
        <mxCell id="0S_B6VVMCFD0EOugPlmB-23" value="" style="endArrow=none;html=1;rounded=0;entryX=0.75;entryY=1;entryDx=0;entryDy=0;" parent="WIyWlLk6GJQsqaUBKTNV-1" source="0S_B6VVMCFD0EOugPlmB-14" target="WIyWlLk6GJQsqaUBKTNV-11" edge="1">
          <mxGeometry width="50" height="50" relative="1" as="geometry">
            <mxPoint x="410" y="250" as="sourcePoint" />
            <mxPoint x="490" y="250" as="targetPoint" />
          </mxGeometry>
        </mxCell>
        <mxCell id="0S_B6VVMCFD0EOugPlmB-24" value="" style="endArrow=none;html=1;rounded=0;exitX=0.55;exitY=0;exitDx=0;exitDy=0;entryX=0.5;entryY=1;entryDx=0;entryDy=0;exitPerimeter=0;" parent="WIyWlLk6GJQsqaUBKTNV-1" source="WIyWlLk6GJQsqaUBKTNV-7" target="0S_B6VVMCFD0EOugPlmB-13" edge="1">
          <mxGeometry width="50" height="50" relative="1" as="geometry">
            <mxPoint x="420" y="260" as="sourcePoint" />
            <mxPoint x="500" y="260" as="targetPoint" />
          </mxGeometry>
        </mxCell>
        <mxCell id="0S_B6VVMCFD0EOugPlmB-25" value="" style="endArrow=none;html=1;rounded=0;exitX=0.569;exitY=1.011;exitDx=0;exitDy=0;entryX=0.5;entryY=0;entryDx=0;entryDy=0;exitPerimeter=0;" parent="WIyWlLk6GJQsqaUBKTNV-1" source="WIyWlLk6GJQsqaUBKTNV-7" target="0S_B6VVMCFD0EOugPlmB-11" edge="1">
          <mxGeometry width="50" height="50" relative="1" as="geometry">
            <mxPoint x="430" y="270" as="sourcePoint" />
            <mxPoint x="510" y="270" as="targetPoint" />
          </mxGeometry>
        </mxCell>
        <mxCell id="0S_B6VVMCFD0EOugPlmB-26" value="" style="endArrow=none;html=1;rounded=0;entryX=0;entryY=0.5;entryDx=0;entryDy=0;" parent="WIyWlLk6GJQsqaUBKTNV-1" source="WIyWlLk6GJQsqaUBKTNV-7" target="0S_B6VVMCFD0EOugPlmB-12" edge="1">
          <mxGeometry width="50" height="50" relative="1" as="geometry">
            <mxPoint x="604" y="299.71" as="sourcePoint" />
            <mxPoint x="730" y="180" as="targetPoint" />
          </mxGeometry>
        </mxCell>
        <mxCell id="0S_B6VVMCFD0EOugPlmB-49" style="edgeStyle=orthogonalEdgeStyle;rounded=0;orthogonalLoop=1;jettySize=auto;html=1;entryX=0.5;entryY=0;entryDx=0;entryDy=0;" parent="WIyWlLk6GJQsqaUBKTNV-1" source="0S_B6VVMCFD0EOugPlmB-29" target="0S_B6VVMCFD0EOugPlmB-41" edge="1">
          <mxGeometry relative="1" as="geometry" />
        </mxCell>
        <mxCell id="0S_B6VVMCFD0EOugPlmB-50" value="Q4" style="edgeLabel;html=1;align=center;verticalAlign=middle;resizable=0;points=[];" parent="0S_B6VVMCFD0EOugPlmB-49" vertex="1" connectable="0">
          <mxGeometry x="-0.1771" relative="1" as="geometry">
            <mxPoint as="offset" />
          </mxGeometry>
        </mxCell>
        <mxCell id="0S_B6VVMCFD0EOugPlmB-51" style="edgeStyle=orthogonalEdgeStyle;rounded=0;orthogonalLoop=1;jettySize=auto;html=1;entryX=0;entryY=0.5;entryDx=0;entryDy=0;" parent="WIyWlLk6GJQsqaUBKTNV-1" source="0S_B6VVMCFD0EOugPlmB-29" target="0S_B6VVMCFD0EOugPlmB-35" edge="1">
          <mxGeometry relative="1" as="geometry" />
        </mxCell>
        <mxCell id="0S_B6VVMCFD0EOugPlmB-52" value="Q5" style="edgeLabel;html=1;align=center;verticalAlign=middle;resizable=0;points=[];" parent="0S_B6VVMCFD0EOugPlmB-51" vertex="1" connectable="0">
          <mxGeometry x="-0.0114" y="1" relative="1" as="geometry">
            <mxPoint as="offset" />
          </mxGeometry>
        </mxCell>
        <mxCell id="0S_B6VVMCFD0EOugPlmB-29" value="Lønn de siste 12 måneder for personer under 30 år med utdanning innen informasjonssystenmer" style="rounded=1;whiteSpace=wrap;html=1;" parent="WIyWlLk6GJQsqaUBKTNV-1" vertex="1">
          <mxGeometry x="407" y="450" width="135" height="90" as="geometry" />
        </mxCell>
        <mxCell id="0S_B6VVMCFD0EOugPlmB-30" value="Utdannelse på personer over 18 år som ikke har jobbet på lenge eller aldri" style="whiteSpace=wrap;html=1;rounded=1;" parent="WIyWlLk6GJQsqaUBKTNV-1" vertex="1">
          <mxGeometry x="232" y="575" width="120" height="60" as="geometry" />
        </mxCell>
        <mxCell id="0S_B6VVMCFD0EOugPlmB-35" value="Personer som har lave engelskkunnskaper og lever under fattigdomsgrensen" style="whiteSpace=wrap;html=1;rounded=1;" parent="WIyWlLk6GJQsqaUBKTNV-1" vertex="1">
          <mxGeometry x="592" y="457.5" width="120" height="75" as="geometry" />
        </mxCell>
        <mxCell id="0S_B6VVMCFD0EOugPlmB-45" style="edgeStyle=orthogonalEdgeStyle;rounded=0;orthogonalLoop=1;jettySize=auto;html=1;entryX=0.5;entryY=0;entryDx=0;entryDy=0;" parent="WIyWlLk6GJQsqaUBKTNV-1" source="0S_B6VVMCFD0EOugPlmB-37" target="0S_B6VVMCFD0EOugPlmB-30" edge="1">
          <mxGeometry relative="1" as="geometry" />
        </mxCell>
        <mxCell id="0S_B6VVMCFD0EOugPlmB-46" value="Q2" style="edgeLabel;html=1;align=center;verticalAlign=middle;resizable=0;points=[];" parent="0S_B6VVMCFD0EOugPlmB-45" vertex="1" connectable="0">
          <mxGeometry x="-0.2857" y="1" relative="1" as="geometry">
            <mxPoint y="4" as="offset" />
          </mxGeometry>
        </mxCell>
        <mxCell id="0S_B6VVMCFD0EOugPlmB-47" style="edgeStyle=orthogonalEdgeStyle;rounded=0;orthogonalLoop=1;jettySize=auto;html=1;entryX=0;entryY=0.5;entryDx=0;entryDy=0;" parent="WIyWlLk6GJQsqaUBKTNV-1" source="0S_B6VVMCFD0EOugPlmB-37" target="0S_B6VVMCFD0EOugPlmB-29" edge="1">
          <mxGeometry relative="1" as="geometry" />
        </mxCell>
        <mxCell id="0S_B6VVMCFD0EOugPlmB-48" value="Q3" style="edgeLabel;html=1;align=center;verticalAlign=middle;resizable=0;points=[];" parent="0S_B6VVMCFD0EOugPlmB-47" vertex="1" connectable="0">
          <mxGeometry x="-0.361" relative="1" as="geometry">
            <mxPoint x="7" as="offset" />
          </mxGeometry>
        </mxCell>
        <mxCell id="0S_B6VVMCFD0EOugPlmB-37" value="Utdanningsnivå på personer som er selvstendig næringsdrivende" style="whiteSpace=wrap;html=1;rounded=1;" parent="WIyWlLk6GJQsqaUBKTNV-1" vertex="1">
          <mxGeometry x="232" y="465" width="120" height="60" as="geometry" />
        </mxCell>
        <mxCell id="0S_B6VVMCFD0EOugPlmB-41" value="Personer med høy utdanning men lav lønn" style="whiteSpace=wrap;html=1;rounded=1;" parent="WIyWlLk6GJQsqaUBKTNV-1" vertex="1">
          <mxGeometry x="414.5" y="590" width="120" height="60" as="geometry" />
        </mxCell>
        <mxCell id="0S_B6VVMCFD0EOugPlmB-43" value="" style="endArrow=classic;html=1;rounded=0;entryX=0;entryY=0.5;entryDx=0;entryDy=0;" parent="WIyWlLk6GJQsqaUBKTNV-1" target="0S_B6VVMCFD0EOugPlmB-37" edge="1">
          <mxGeometry width="50" height="50" relative="1" as="geometry">
            <mxPoint x="150" y="495" as="sourcePoint" />
            <mxPoint x="60" y="427.5" as="targetPoint" />
          </mxGeometry>
        </mxCell>
        <mxCell id="0S_B6VVMCFD0EOugPlmB-44" value="Q1" style="edgeLabel;html=1;align=center;verticalAlign=middle;resizable=0;points=[];" parent="0S_B6VVMCFD0EOugPlmB-43" vertex="1" connectable="0">
          <mxGeometry x="-0.1943" y="-1" relative="1" as="geometry">
            <mxPoint as="offset" />
          </mxGeometry>
        </mxCell>
        <mxCell id="0S_B6VVMCFD0EOugPlmB-93" value="" style="edgeStyle=orthogonalEdgeStyle;rounded=0;orthogonalLoop=1;jettySize=auto;html=1;entryX=0;entryY=0.5;entryDx=0;entryDy=0;" parent="WIyWlLk6GJQsqaUBKTNV-1" target="0S_B6VVMCFD0EOugPlmB-54" edge="1">
          <mxGeometry relative="1" as="geometry">
            <mxPoint x="290" y="790" as="sourcePoint" />
            <mxPoint x="320" y="790" as="targetPoint" />
          </mxGeometry>
        </mxCell>
        <mxCell id="0S_B6VVMCFD0EOugPlmB-113" value="Q3" style="edgeLabel;html=1;align=center;verticalAlign=middle;resizable=0;points=[];" parent="0S_B6VVMCFD0EOugPlmB-93" vertex="1" connectable="0">
          <mxGeometry x="-0.35" y="2" relative="1" as="geometry">
            <mxPoint x="2" as="offset" />
          </mxGeometry>
        </mxCell>
        <mxCell id="0S_B6VVMCFD0EOugPlmB-131" value="" style="edgeStyle=orthogonalEdgeStyle;rounded=0;orthogonalLoop=1;jettySize=auto;html=1;entryX=0.5;entryY=0;entryDx=0;entryDy=0;" parent="WIyWlLk6GJQsqaUBKTNV-1" target="0S_B6VVMCFD0EOugPlmB-77" edge="1">
          <mxGeometry relative="1" as="geometry">
            <mxPoint x="170" y="890" as="sourcePoint" />
            <mxPoint x="168" y="920" as="targetPoint" />
          </mxGeometry>
        </mxCell>
        <mxCell id="0S_B6VVMCFD0EOugPlmB-154" value="Q2" style="edgeLabel;html=1;align=center;verticalAlign=middle;resizable=0;points=[];" parent="0S_B6VVMCFD0EOugPlmB-131" vertex="1" connectable="0">
          <mxGeometry x="-0.3611" relative="1" as="geometry">
            <mxPoint y="5" as="offset" />
          </mxGeometry>
        </mxCell>
        <mxCell id="0S_B6VVMCFD0EOugPlmB-54" value="education_and_income_by_degree" style="swimlane;whiteSpace=wrap;html=1;" parent="WIyWlLk6GJQsqaUBKTNV-1" vertex="1">
          <mxGeometry x="325" y="690" width="235" height="200" as="geometry" />
        </mxCell>
        <mxCell id="0S_B6VVMCFD0EOugPlmB-56" value="&lt;b&gt;person_id&lt;/b&gt;" style="text;html=1;align=center;verticalAlign=middle;resizable=0;points=[];autosize=1;strokeColor=none;fillColor=none;" parent="0S_B6VVMCFD0EOugPlmB-54" vertex="1">
          <mxGeometry y="30" width="80" height="30" as="geometry" />
        </mxCell>
        <mxCell id="0S_B6VVMCFD0EOugPlmB-57" value="&lt;b&gt;INT&lt;/b&gt;" style="text;html=1;align=center;verticalAlign=middle;resizable=0;points=[];autosize=1;strokeColor=none;fillColor=none;" parent="0S_B6VVMCFD0EOugPlmB-54" vertex="1">
          <mxGeometry x="140" y="30" width="40" height="30" as="geometry" />
        </mxCell>
        <mxCell id="0S_B6VVMCFD0EOugPlmB-60" value="&lt;b&gt;education_level&lt;/b&gt;" style="text;html=1;align=center;verticalAlign=middle;resizable=0;points=[];autosize=1;strokeColor=none;fillColor=none;" parent="0S_B6VVMCFD0EOugPlmB-54" vertex="1">
          <mxGeometry y="60" width="110" height="30" as="geometry" />
        </mxCell>
        <mxCell id="0S_B6VVMCFD0EOugPlmB-64" value="&lt;b&gt;TEXT&lt;/b&gt;" style="text;html=1;align=center;verticalAlign=middle;resizable=0;points=[];autosize=1;strokeColor=none;fillColor=none;" parent="0S_B6VVMCFD0EOugPlmB-54" vertex="1">
          <mxGeometry x="135" y="60" width="50" height="30" as="geometry" />
        </mxCell>
        <mxCell id="0S_B6VVMCFD0EOugPlmB-65" value="&lt;b&gt;field_of_degree1&lt;/b&gt;" style="text;html=1;align=center;verticalAlign=middle;resizable=0;points=[];autosize=1;strokeColor=none;fillColor=none;" parent="0S_B6VVMCFD0EOugPlmB-54" vertex="1">
          <mxGeometry y="85" width="120" height="30" as="geometry" />
        </mxCell>
        <mxCell id="0S_B6VVMCFD0EOugPlmB-66" value="&lt;b&gt;age&lt;/b&gt;" style="text;html=1;align=center;verticalAlign=middle;resizable=0;points=[];autosize=1;strokeColor=none;fillColor=none;" parent="0S_B6VVMCFD0EOugPlmB-54" vertex="1">
          <mxGeometry x="5" y="110" width="40" height="30" as="geometry" />
        </mxCell>
        <mxCell id="0S_B6VVMCFD0EOugPlmB-67" value="&lt;b&gt;salary_past_12_months&lt;/b&gt;" style="text;html=1;align=center;verticalAlign=middle;resizable=0;points=[];autosize=1;strokeColor=none;fillColor=none;" parent="0S_B6VVMCFD0EOugPlmB-54" vertex="1">
          <mxGeometry x="-5" y="140" width="160" height="30" as="geometry" />
        </mxCell>
        <mxCell id="0S_B6VVMCFD0EOugPlmB-68" value="&lt;b&gt;TEXT&lt;/b&gt;" style="text;html=1;align=center;verticalAlign=middle;resizable=0;points=[];autosize=1;strokeColor=none;fillColor=none;" parent="0S_B6VVMCFD0EOugPlmB-54" vertex="1">
          <mxGeometry x="135" y="85" width="50" height="30" as="geometry" />
        </mxCell>
        <mxCell id="0S_B6VVMCFD0EOugPlmB-69" value="&lt;b&gt;INT&lt;/b&gt;" style="text;html=1;align=center;verticalAlign=middle;resizable=0;points=[];autosize=1;strokeColor=none;fillColor=none;" parent="0S_B6VVMCFD0EOugPlmB-54" vertex="1">
          <mxGeometry x="145" y="115" width="40" height="30" as="geometry" />
        </mxCell>
        <mxCell id="0S_B6VVMCFD0EOugPlmB-70" value="&lt;b&gt;INT&lt;/b&gt;" style="text;html=1;align=center;verticalAlign=middle;resizable=0;points=[];autosize=1;strokeColor=none;fillColor=none;" parent="0S_B6VVMCFD0EOugPlmB-54" vertex="1">
          <mxGeometry x="145" y="140" width="40" height="30" as="geometry" />
        </mxCell>
        <mxCell id="0S_B6VVMCFD0EOugPlmB-71" value="&lt;b&gt;K&lt;/b&gt;" style="text;html=1;align=center;verticalAlign=middle;resizable=0;points=[];autosize=1;strokeColor=none;fillColor=none;" parent="0S_B6VVMCFD0EOugPlmB-54" vertex="1">
          <mxGeometry x="188" y="60" width="30" height="30" as="geometry" />
        </mxCell>
        <mxCell id="0S_B6VVMCFD0EOugPlmB-72" value="&lt;b&gt;K&lt;/b&gt;" style="text;html=1;align=center;verticalAlign=middle;resizable=0;points=[];autosize=1;strokeColor=none;fillColor=none;" parent="0S_B6VVMCFD0EOugPlmB-54" vertex="1">
          <mxGeometry x="188" y="90" width="30" height="30" as="geometry" />
        </mxCell>
        <mxCell id="0S_B6VVMCFD0EOugPlmB-73" value="&lt;b&gt;C&lt;/b&gt;" style="text;html=1;align=center;verticalAlign=middle;resizable=0;points=[];autosize=1;strokeColor=none;fillColor=none;" parent="0S_B6VVMCFD0EOugPlmB-54" vertex="1">
          <mxGeometry x="188" y="120" width="30" height="30" as="geometry" />
        </mxCell>
        <mxCell id="0S_B6VVMCFD0EOugPlmB-75" value="" style="endArrow=classic;html=1;rounded=0;" parent="0S_B6VVMCFD0EOugPlmB-54" edge="1">
          <mxGeometry width="50" height="50" relative="1" as="geometry">
            <mxPoint x="217" y="145" as="sourcePoint" />
            <mxPoint x="217" y="125" as="targetPoint" />
          </mxGeometry>
        </mxCell>
        <mxCell id="0S_B6VVMCFD0EOugPlmB-159" value="&lt;b&gt;C&lt;/b&gt;" style="text;html=1;align=center;verticalAlign=middle;resizable=0;points=[];autosize=1;strokeColor=none;fillColor=none;" parent="0S_B6VVMCFD0EOugPlmB-54" vertex="1">
          <mxGeometry x="188" y="30" width="30" height="30" as="geometry" />
        </mxCell>
        <mxCell id="0S_B6VVMCFD0EOugPlmB-160" value="" style="endArrow=classic;html=1;rounded=0;" parent="0S_B6VVMCFD0EOugPlmB-54" edge="1">
          <mxGeometry width="50" height="50" relative="1" as="geometry">
            <mxPoint x="218" y="55" as="sourcePoint" />
            <mxPoint x="218" y="35" as="targetPoint" />
          </mxGeometry>
        </mxCell>
        <mxCell id="0S_B6VVMCFD0EOugPlmB-110" value="" style="edgeStyle=orthogonalEdgeStyle;rounded=0;orthogonalLoop=1;jettySize=auto;html=1;exitX=1;exitY=0.5;exitDx=0;exitDy=0;" parent="WIyWlLk6GJQsqaUBKTNV-1" source="0S_B6VVMCFD0EOugPlmB-54" target="0S_B6VVMCFD0EOugPlmB-94" edge="1">
          <mxGeometry relative="1" as="geometry">
            <mxPoint x="570" y="790" as="sourcePoint" />
          </mxGeometry>
        </mxCell>
        <mxCell id="0S_B6VVMCFD0EOugPlmB-114" value="Q5" style="edgeLabel;html=1;align=center;verticalAlign=middle;resizable=0;points=[];" parent="0S_B6VVMCFD0EOugPlmB-110" vertex="1" connectable="0">
          <mxGeometry x="0.2083" y="-1" relative="1" as="geometry">
            <mxPoint as="offset" />
          </mxGeometry>
        </mxCell>
        <mxCell id="0S_B6VVMCFD0EOugPlmB-77" value="person_education" style="swimlane;whiteSpace=wrap;html=1;" parent="WIyWlLk6GJQsqaUBKTNV-1" vertex="1">
          <mxGeometry x="52.5" y="930" width="235" height="200" as="geometry" />
        </mxCell>
        <mxCell id="0S_B6VVMCFD0EOugPlmB-78" value="&lt;b&gt;person_id&lt;/b&gt;" style="text;html=1;align=center;verticalAlign=middle;resizable=0;points=[];autosize=1;strokeColor=none;fillColor=none;" parent="0S_B6VVMCFD0EOugPlmB-77" vertex="1">
          <mxGeometry x="5" y="30" width="80" height="30" as="geometry" />
        </mxCell>
        <mxCell id="0S_B6VVMCFD0EOugPlmB-79" value="&lt;b&gt;INT&lt;/b&gt;" style="text;html=1;align=center;verticalAlign=middle;resizable=0;points=[];autosize=1;strokeColor=none;fillColor=none;" parent="0S_B6VVMCFD0EOugPlmB-77" vertex="1">
          <mxGeometry x="120" y="30" width="40" height="30" as="geometry" />
        </mxCell>
        <mxCell id="0S_B6VVMCFD0EOugPlmB-80" value="&lt;b&gt;when_last_worked&lt;/b&gt;" style="text;html=1;align=center;verticalAlign=middle;resizable=0;points=[];autosize=1;strokeColor=none;fillColor=none;" parent="0S_B6VVMCFD0EOugPlmB-77" vertex="1">
          <mxGeometry y="60" width="130" height="30" as="geometry" />
        </mxCell>
        <mxCell id="0S_B6VVMCFD0EOugPlmB-81" value="&lt;b&gt;TEXT&lt;/b&gt;" style="text;html=1;align=center;verticalAlign=middle;resizable=0;points=[];autosize=1;strokeColor=none;fillColor=none;" parent="0S_B6VVMCFD0EOugPlmB-77" vertex="1">
          <mxGeometry x="115" y="60" width="50" height="30" as="geometry" />
        </mxCell>
        <mxCell id="0S_B6VVMCFD0EOugPlmB-82" value="&lt;b&gt;age&lt;/b&gt;" style="text;html=1;align=center;verticalAlign=middle;resizable=0;points=[];autosize=1;strokeColor=none;fillColor=none;" parent="0S_B6VVMCFD0EOugPlmB-77" vertex="1">
          <mxGeometry x="15" y="90" width="40" height="30" as="geometry" />
        </mxCell>
        <mxCell id="0S_B6VVMCFD0EOugPlmB-83" value="&lt;b&gt;&amp;lt;education&amp;gt;&lt;/b&gt;" style="text;html=1;align=center;verticalAlign=middle;resizable=0;points=[];autosize=1;strokeColor=none;fillColor=none;" parent="0S_B6VVMCFD0EOugPlmB-77" vertex="1">
          <mxGeometry y="130" width="90" height="30" as="geometry" />
        </mxCell>
        <mxCell id="0S_B6VVMCFD0EOugPlmB-85" value="&lt;b&gt;TEXT&lt;/b&gt;" style="text;html=1;align=center;verticalAlign=middle;resizable=0;points=[];autosize=1;strokeColor=none;fillColor=none;" parent="0S_B6VVMCFD0EOugPlmB-77" vertex="1">
          <mxGeometry x="115" y="90" width="50" height="30" as="geometry" />
        </mxCell>
        <mxCell id="0S_B6VVMCFD0EOugPlmB-86" value="&lt;b&gt;MAP&amp;lt;TEXT,TEXT&amp;gt;&lt;/b&gt;" style="text;html=1;align=center;verticalAlign=middle;resizable=0;points=[];autosize=1;strokeColor=none;fillColor=none;" parent="0S_B6VVMCFD0EOugPlmB-77" vertex="1">
          <mxGeometry x="75" y="130" width="130" height="30" as="geometry" />
        </mxCell>
        <mxCell id="0S_B6VVMCFD0EOugPlmB-88" value="&lt;b&gt;K&lt;/b&gt;" style="text;html=1;align=center;verticalAlign=middle;resizable=0;points=[];autosize=1;strokeColor=none;fillColor=none;" parent="0S_B6VVMCFD0EOugPlmB-77" vertex="1">
          <mxGeometry x="188" y="60" width="30" height="30" as="geometry" />
        </mxCell>
        <mxCell id="0S_B6VVMCFD0EOugPlmB-89" value="&lt;b&gt;C&lt;/b&gt;" style="text;html=1;align=center;verticalAlign=middle;resizable=0;points=[];autosize=1;strokeColor=none;fillColor=none;" parent="0S_B6VVMCFD0EOugPlmB-77" vertex="1">
          <mxGeometry x="185" y="30" width="30" height="30" as="geometry" />
        </mxCell>
        <mxCell id="0S_B6VVMCFD0EOugPlmB-90" value="&lt;b&gt;C&lt;/b&gt;" style="text;html=1;align=center;verticalAlign=middle;resizable=0;points=[];autosize=1;strokeColor=none;fillColor=none;" parent="0S_B6VVMCFD0EOugPlmB-77" vertex="1">
          <mxGeometry x="185" y="90" width="30" height="30" as="geometry" />
        </mxCell>
        <mxCell id="0S_B6VVMCFD0EOugPlmB-91" value="" style="endArrow=classic;html=1;rounded=0;" parent="0S_B6VVMCFD0EOugPlmB-77" edge="1">
          <mxGeometry width="50" height="50" relative="1" as="geometry">
            <mxPoint x="218" y="55" as="sourcePoint" />
            <mxPoint x="218" y="35" as="targetPoint" />
          </mxGeometry>
        </mxCell>
        <mxCell id="0S_B6VVMCFD0EOugPlmB-153" value="" style="endArrow=classic;html=1;rounded=0;" parent="0S_B6VVMCFD0EOugPlmB-77" edge="1">
          <mxGeometry width="50" height="50" relative="1" as="geometry">
            <mxPoint x="215" y="90" as="sourcePoint" />
            <mxPoint x="215" y="110" as="targetPoint" />
          </mxGeometry>
        </mxCell>
        <mxCell id="0S_B6VVMCFD0EOugPlmB-94" value="english_skills_and_poverty_ratio" style="swimlane;whiteSpace=wrap;html=1;" parent="WIyWlLk6GJQsqaUBKTNV-1" vertex="1">
          <mxGeometry x="592" y="690" width="235" height="200" as="geometry" />
        </mxCell>
        <mxCell id="0S_B6VVMCFD0EOugPlmB-95" value="&lt;b&gt;person_id&lt;/b&gt;" style="text;html=1;align=center;verticalAlign=middle;resizable=0;points=[];autosize=1;strokeColor=none;fillColor=none;" parent="0S_B6VVMCFD0EOugPlmB-94" vertex="1">
          <mxGeometry x="5" y="40" width="80" height="30" as="geometry" />
        </mxCell>
        <mxCell id="0S_B6VVMCFD0EOugPlmB-96" value="&lt;b&gt;INT&lt;/b&gt;" style="text;html=1;align=center;verticalAlign=middle;resizable=0;points=[];autosize=1;strokeColor=none;fillColor=none;" parent="0S_B6VVMCFD0EOugPlmB-94" vertex="1">
          <mxGeometry x="125" y="40" width="40" height="30" as="geometry" />
        </mxCell>
        <mxCell id="0S_B6VVMCFD0EOugPlmB-97" value="&lt;b&gt;english_ability&lt;/b&gt;" style="text;html=1;align=center;verticalAlign=middle;resizable=0;points=[];autosize=1;strokeColor=none;fillColor=none;" parent="0S_B6VVMCFD0EOugPlmB-94" vertex="1">
          <mxGeometry y="80" width="110" height="30" as="geometry" />
        </mxCell>
        <mxCell id="0S_B6VVMCFD0EOugPlmB-98" value="&lt;b&gt;TEXT&lt;/b&gt;" style="text;html=1;align=center;verticalAlign=middle;resizable=0;points=[];autosize=1;strokeColor=none;fillColor=none;" parent="0S_B6VVMCFD0EOugPlmB-94" vertex="1">
          <mxGeometry x="120" y="80" width="50" height="30" as="geometry" />
        </mxCell>
        <mxCell id="0S_B6VVMCFD0EOugPlmB-99" value="&lt;b&gt;poverty_income_ratio&lt;/b&gt;" style="text;html=1;align=center;verticalAlign=middle;resizable=0;points=[];autosize=1;strokeColor=none;fillColor=none;" parent="0S_B6VVMCFD0EOugPlmB-94" vertex="1">
          <mxGeometry x="-12" y="120" width="150" height="30" as="geometry" />
        </mxCell>
        <mxCell id="0S_B6VVMCFD0EOugPlmB-102" value="&lt;b&gt;INT&lt;/b&gt;" style="text;html=1;align=center;verticalAlign=middle;resizable=0;points=[];autosize=1;strokeColor=none;fillColor=none;" parent="0S_B6VVMCFD0EOugPlmB-94" vertex="1">
          <mxGeometry x="125" y="120" width="40" height="30" as="geometry" />
        </mxCell>
        <mxCell id="0S_B6VVMCFD0EOugPlmB-105" value="&lt;b&gt;K&lt;/b&gt;" style="text;html=1;align=center;verticalAlign=middle;resizable=0;points=[];autosize=1;strokeColor=none;fillColor=none;" parent="0S_B6VVMCFD0EOugPlmB-94" vertex="1">
          <mxGeometry x="188" y="80" width="30" height="30" as="geometry" />
        </mxCell>
        <mxCell id="0S_B6VVMCFD0EOugPlmB-106" value="&lt;b&gt;C&lt;/b&gt;" style="text;html=1;align=center;verticalAlign=middle;resizable=0;points=[];autosize=1;strokeColor=none;fillColor=none;" parent="0S_B6VVMCFD0EOugPlmB-94" vertex="1">
          <mxGeometry x="188" y="120" width="30" height="30" as="geometry" />
        </mxCell>
        <mxCell id="0S_B6VVMCFD0EOugPlmB-108" value="" style="endArrow=classic;html=1;rounded=0;" parent="0S_B6VVMCFD0EOugPlmB-94" edge="1">
          <mxGeometry width="50" height="50" relative="1" as="geometry">
            <mxPoint x="217.67" y="145" as="sourcePoint" />
            <mxPoint x="217.67" y="125" as="targetPoint" />
          </mxGeometry>
        </mxCell>
        <mxCell id="0S_B6VVMCFD0EOugPlmB-163" value="&lt;b&gt;C&lt;/b&gt;" style="text;html=1;align=center;verticalAlign=middle;resizable=0;points=[];autosize=1;strokeColor=none;fillColor=none;" parent="0S_B6VVMCFD0EOugPlmB-94" vertex="1">
          <mxGeometry x="188" y="40" width="30" height="30" as="geometry" />
        </mxCell>
        <mxCell id="0S_B6VVMCFD0EOugPlmB-164" value="" style="endArrow=classic;html=1;rounded=0;" parent="0S_B6VVMCFD0EOugPlmB-94" edge="1">
          <mxGeometry width="50" height="50" relative="1" as="geometry">
            <mxPoint x="217" y="65" as="sourcePoint" />
            <mxPoint x="217" y="45" as="targetPoint" />
          </mxGeometry>
        </mxCell>
        <mxCell id="0S_B6VVMCFD0EOugPlmB-111" value="" style="endArrow=classic;html=1;rounded=0;entryX=0;entryY=0.5;entryDx=0;entryDy=0;" parent="WIyWlLk6GJQsqaUBKTNV-1" target="0S_B6VVMCFD0EOugPlmB-115" edge="1">
          <mxGeometry width="50" height="50" relative="1" as="geometry">
            <mxPoint x="10" y="790" as="sourcePoint" />
            <mxPoint x="40" y="790" as="targetPoint" />
          </mxGeometry>
        </mxCell>
        <mxCell id="0S_B6VVMCFD0EOugPlmB-112" value="Q1" style="edgeLabel;html=1;align=center;verticalAlign=middle;resizable=0;points=[];" parent="0S_B6VVMCFD0EOugPlmB-111" vertex="1" connectable="0">
          <mxGeometry x="-0.1943" y="-1" relative="1" as="geometry">
            <mxPoint as="offset" />
          </mxGeometry>
        </mxCell>
        <mxCell id="0S_B6VVMCFD0EOugPlmB-156" style="edgeStyle=orthogonalEdgeStyle;rounded=0;orthogonalLoop=1;jettySize=auto;html=1;entryX=0.5;entryY=0;entryDx=0;entryDy=0;" parent="WIyWlLk6GJQsqaUBKTNV-1" target="0S_B6VVMCFD0EOugPlmB-132" edge="1">
          <mxGeometry relative="1" as="geometry">
            <mxPoint x="443" y="890" as="sourcePoint" />
          </mxGeometry>
        </mxCell>
        <mxCell id="0S_B6VVMCFD0EOugPlmB-157" value="Q4" style="edgeLabel;html=1;align=center;verticalAlign=middle;resizable=0;points=[];" parent="0S_B6VVMCFD0EOugPlmB-156" vertex="1" connectable="0">
          <mxGeometry x="-0.0694" relative="1" as="geometry">
            <mxPoint as="offset" />
          </mxGeometry>
        </mxCell>
        <mxCell id="0S_B6VVMCFD0EOugPlmB-115" value="worker_education_and_employment" style="swimlane;whiteSpace=wrap;html=1;" parent="WIyWlLk6GJQsqaUBKTNV-1" vertex="1">
          <mxGeometry x="52.5" y="690" width="235" height="200" as="geometry" />
        </mxCell>
        <mxCell id="0S_B6VVMCFD0EOugPlmB-116" value="&lt;b&gt;person_id&lt;/b&gt;" style="text;html=1;align=center;verticalAlign=middle;resizable=0;points=[];autosize=1;strokeColor=none;fillColor=none;" parent="0S_B6VVMCFD0EOugPlmB-115" vertex="1">
          <mxGeometry x="5" y="40" width="80" height="30" as="geometry" />
        </mxCell>
        <mxCell id="0S_B6VVMCFD0EOugPlmB-117" value="&lt;b&gt;INT&lt;/b&gt;" style="text;html=1;align=center;verticalAlign=middle;resizable=0;points=[];autosize=1;strokeColor=none;fillColor=none;" parent="0S_B6VVMCFD0EOugPlmB-115" vertex="1">
          <mxGeometry x="120" y="40" width="40" height="30" as="geometry" />
        </mxCell>
        <mxCell id="0S_B6VVMCFD0EOugPlmB-118" value="&lt;b&gt;education_level&lt;/b&gt;" style="text;html=1;align=center;verticalAlign=middle;resizable=0;points=[];autosize=1;strokeColor=none;fillColor=none;" parent="0S_B6VVMCFD0EOugPlmB-115" vertex="1">
          <mxGeometry y="80" width="110" height="30" as="geometry" />
        </mxCell>
        <mxCell id="0S_B6VVMCFD0EOugPlmB-119" value="&lt;b&gt;TEXT&lt;/b&gt;" style="text;html=1;align=center;verticalAlign=middle;resizable=0;points=[];autosize=1;strokeColor=none;fillColor=none;" parent="0S_B6VVMCFD0EOugPlmB-115" vertex="1">
          <mxGeometry x="115" y="80" width="50" height="30" as="geometry" />
        </mxCell>
        <mxCell id="0S_B6VVMCFD0EOugPlmB-120" value="&lt;b&gt;class_of_worker&lt;/b&gt;" style="text;html=1;align=center;verticalAlign=middle;resizable=0;points=[];autosize=1;strokeColor=none;fillColor=none;" parent="0S_B6VVMCFD0EOugPlmB-115" vertex="1">
          <mxGeometry x="-5" y="120" width="120" height="30" as="geometry" />
        </mxCell>
        <mxCell id="0S_B6VVMCFD0EOugPlmB-123" value="&lt;b&gt;TEXT&lt;/b&gt;" style="text;html=1;align=center;verticalAlign=middle;resizable=0;points=[];autosize=1;strokeColor=none;fillColor=none;" parent="0S_B6VVMCFD0EOugPlmB-115" vertex="1">
          <mxGeometry x="115" y="120" width="50" height="30" as="geometry" />
        </mxCell>
        <mxCell id="0S_B6VVMCFD0EOugPlmB-126" value="&lt;b&gt;K&lt;/b&gt;" style="text;html=1;align=center;verticalAlign=middle;resizable=0;points=[];autosize=1;strokeColor=none;fillColor=none;" parent="0S_B6VVMCFD0EOugPlmB-115" vertex="1">
          <mxGeometry x="188" y="80" width="30" height="30" as="geometry" />
        </mxCell>
        <mxCell id="0S_B6VVMCFD0EOugPlmB-129" value="" style="endArrow=classic;html=1;rounded=0;" parent="0S_B6VVMCFD0EOugPlmB-115" edge="1">
          <mxGeometry width="50" height="50" relative="1" as="geometry">
            <mxPoint x="217" y="65" as="sourcePoint" />
            <mxPoint x="217" y="45" as="targetPoint" />
          </mxGeometry>
        </mxCell>
        <mxCell id="0S_B6VVMCFD0EOugPlmB-161" value="&lt;b&gt;K&lt;/b&gt;" style="text;html=1;align=center;verticalAlign=middle;resizable=0;points=[];autosize=1;strokeColor=none;fillColor=none;" parent="0S_B6VVMCFD0EOugPlmB-115" vertex="1">
          <mxGeometry x="188" y="120" width="30" height="30" as="geometry" />
        </mxCell>
        <mxCell id="0S_B6VVMCFD0EOugPlmB-162" value="&lt;b&gt;C&lt;/b&gt;" style="text;html=1;align=center;verticalAlign=middle;resizable=0;points=[];autosize=1;strokeColor=none;fillColor=none;" parent="0S_B6VVMCFD0EOugPlmB-115" vertex="1">
          <mxGeometry x="187.5" y="40" width="30" height="30" as="geometry" />
        </mxCell>
        <mxCell id="0S_B6VVMCFD0EOugPlmB-132" value="high_education_low_income" style="swimlane;whiteSpace=wrap;html=1;" parent="WIyWlLk6GJQsqaUBKTNV-1" vertex="1">
          <mxGeometry x="325" y="930" width="235" height="200" as="geometry" />
        </mxCell>
        <mxCell id="0S_B6VVMCFD0EOugPlmB-133" value="&lt;b&gt;person_id&lt;/b&gt;" style="text;html=1;align=center;verticalAlign=middle;resizable=0;points=[];autosize=1;strokeColor=none;fillColor=none;" parent="0S_B6VVMCFD0EOugPlmB-132" vertex="1">
          <mxGeometry y="30" width="80" height="30" as="geometry" />
        </mxCell>
        <mxCell id="0S_B6VVMCFD0EOugPlmB-134" value="&lt;b&gt;INT&lt;/b&gt;" style="text;html=1;align=center;verticalAlign=middle;resizable=0;points=[];autosize=1;strokeColor=none;fillColor=none;" parent="0S_B6VVMCFD0EOugPlmB-132" vertex="1">
          <mxGeometry x="145" y="30" width="40" height="30" as="geometry" />
        </mxCell>
        <mxCell id="0S_B6VVMCFD0EOugPlmB-135" value="&lt;b&gt;education_level&lt;/b&gt;" style="text;html=1;align=center;verticalAlign=middle;resizable=0;points=[];autosize=1;strokeColor=none;fillColor=none;" parent="0S_B6VVMCFD0EOugPlmB-132" vertex="1">
          <mxGeometry y="60" width="110" height="30" as="geometry" />
        </mxCell>
        <mxCell id="0S_B6VVMCFD0EOugPlmB-136" value="&lt;b&gt;TEXT&lt;/b&gt;" style="text;html=1;align=center;verticalAlign=middle;resizable=0;points=[];autosize=1;strokeColor=none;fillColor=none;" parent="0S_B6VVMCFD0EOugPlmB-132" vertex="1">
          <mxGeometry x="140" y="60" width="50" height="30" as="geometry" />
        </mxCell>
        <mxCell id="0S_B6VVMCFD0EOugPlmB-137" value="&lt;b&gt;field_of_degree1&lt;/b&gt;" style="text;html=1;align=center;verticalAlign=middle;resizable=0;points=[];autosize=1;strokeColor=none;fillColor=none;" parent="0S_B6VVMCFD0EOugPlmB-132" vertex="1">
          <mxGeometry y="85" width="120" height="30" as="geometry" />
        </mxCell>
        <mxCell id="0S_B6VVMCFD0EOugPlmB-138" value="&lt;b&gt;salary_past_12_months&lt;/b&gt;" style="text;html=1;align=center;verticalAlign=middle;resizable=0;points=[];autosize=1;strokeColor=none;fillColor=none;" parent="0S_B6VVMCFD0EOugPlmB-132" vertex="1">
          <mxGeometry y="115" width="160" height="30" as="geometry" />
        </mxCell>
        <mxCell id="0S_B6VVMCFD0EOugPlmB-140" value="&lt;b&gt;TEXT&lt;/b&gt;" style="text;html=1;align=center;verticalAlign=middle;resizable=0;points=[];autosize=1;strokeColor=none;fillColor=none;" parent="0S_B6VVMCFD0EOugPlmB-132" vertex="1">
          <mxGeometry x="138" y="85" width="50" height="30" as="geometry" />
        </mxCell>
        <mxCell id="0S_B6VVMCFD0EOugPlmB-141" value="&lt;b&gt;INT&lt;/b&gt;" style="text;html=1;align=center;verticalAlign=middle;resizable=0;points=[];autosize=1;strokeColor=none;fillColor=none;" parent="0S_B6VVMCFD0EOugPlmB-132" vertex="1">
          <mxGeometry x="145" y="115" width="40" height="30" as="geometry" />
        </mxCell>
        <mxCell id="0S_B6VVMCFD0EOugPlmB-143" value="&lt;b&gt;K&lt;/b&gt;" style="text;html=1;align=center;verticalAlign=middle;resizable=0;points=[];autosize=1;strokeColor=none;fillColor=none;" parent="0S_B6VVMCFD0EOugPlmB-132" vertex="1">
          <mxGeometry x="185" y="60" width="30" height="30" as="geometry" />
        </mxCell>
        <mxCell id="0S_B6VVMCFD0EOugPlmB-144" value="&lt;b&gt;C&lt;/b&gt;" style="text;html=1;align=center;verticalAlign=middle;resizable=0;points=[];autosize=1;strokeColor=none;fillColor=none;" parent="0S_B6VVMCFD0EOugPlmB-132" vertex="1">
          <mxGeometry x="185" y="30" width="30" height="30" as="geometry" />
        </mxCell>
        <mxCell id="0S_B6VVMCFD0EOugPlmB-145" value="&lt;b&gt;C&lt;/b&gt;" style="text;html=1;align=center;verticalAlign=middle;resizable=0;points=[];autosize=1;strokeColor=none;fillColor=none;" parent="0S_B6VVMCFD0EOugPlmB-132" vertex="1">
          <mxGeometry x="188" y="115" width="30" height="30" as="geometry" />
        </mxCell>
        <mxCell id="0S_B6VVMCFD0EOugPlmB-146" value="" style="endArrow=classic;html=1;rounded=0;" parent="0S_B6VVMCFD0EOugPlmB-132" edge="1">
          <mxGeometry width="50" height="50" relative="1" as="geometry">
            <mxPoint x="215" y="55" as="sourcePoint" />
            <mxPoint x="215" y="35" as="targetPoint" />
          </mxGeometry>
        </mxCell>
        <mxCell id="0S_B6VVMCFD0EOugPlmB-147" value="" style="endArrow=classic;html=1;rounded=0;" parent="0S_B6VVMCFD0EOugPlmB-132" edge="1">
          <mxGeometry width="50" height="50" relative="1" as="geometry">
            <mxPoint x="218" y="140" as="sourcePoint" />
            <mxPoint x="218" y="120" as="targetPoint" />
          </mxGeometry>
        </mxCell>
      </root>
    </mxGraphModel>
  </diagram>
</mxfile>
